<svg xmlns="http://www.w3.org/2000/svg" width="27" height="27" viewBox="0 0 27 27"><path class="bvviz-checkmark-bg" fill="#fff" d="M13.5 24.9c-6.1 0-11.4-5.1-11.4-11.4S7.2 2.2 13.5 2.2s11.4 4.9 11.4 11.4S20 24.9 13.5 24.9z"/><path class="bvviz-checkmark-border" fill="#D2D2D2" d="M13.5 0C6.2 0 0 6 0 13.5S6.1 27 13.5 27 27 20.8 27 13.5 21.2 0 13.5 0zm0 24.9c-6.1 0-11.4-5.1-11.4-11.4S7.2 2.2 13.5 2.2s11.4 4.9 11.4 11.4S20 24.9 13.5 24.9z"/><path class="bvviz-checkmark-check" fill="#36A8DE" d="M11.7 15.4L8 11.9l-2.5 2.2 6.2 6.1L21.8 9.6l-2.2-2.5"/></svg>